<svg xmlns="http://www.w3.org/2000/svg" viewBox="0 0 680 785"><defs><style>.cls-1{fill:#786ccd;}.cls-2{fill:#33208c;}.cls-3{fill:#4e43a4;}.cls-4{fill:#5f55ad;}.cls-5{fill:#fff;}.cls-6,.cls-8{fill:none;}.cls-6{stroke:#7a72bb;stroke-miterlimit:10;stroke-width:6.78px;}.cls-7{fill:#9389d7;}</style></defs><g id="Layer_2" data-name="Layer 2"><g id="Layer_1-2" data-name="Layer 1"><polygon class="cls-1" points="0.09 196.25 0.09 588.75 340 785 679.91 588.75 679.91 196.25 340 0 0.09 196.25"/><path class="cls-2" d="M435.46,467.94c0,25-5.77,48.19-15.7,67.58-17.07,33.38-46.42,55.4-79.76,55.4s-62.69-22-79.76-55.39c-9.92-19.4-15.7-42.63-15.7-67.59C244.54,400,435.46,400,435.46,467.94Z"/><path class="cls-3" d="M340.24,590.92c-52.72,0-95.46-55.06-95.46-123,0-13.2,26.47,51.49,50.19,83.34A147.14,147.14,0,0,0,340.24,590.92Z"/><path class="cls-2" d="M340,156.17a3.6,3.6,0,0,0-3.6,3.59v57.72h7.2V159.76A3.6,3.6,0,0,0,340,156.17Z"/><circle class="cls-2" cx="340" cy="151.66" r="8.17"/><path class="cls-2" d="M405.19,336.52l-4-129.67c-.29-9.39-4.13-17.07-9.15-18.22a236.76,236.76,0,0,0-104.08,0c-5,1.15-8.86,8.83-9.15,18.22l-4,129.67c-.34,11.17,4.42,20.58,10.43,20.58H394.76C400.77,357.1,405.53,347.69,405.19,336.52Z"/><path class="cls-3" d="M461.41,349.51,454,219.83a19.45,19.45,0,0,0-17-18.21,797.39,797.39,0,0,0-96.92-5.8c-20.42,0-40.35.83-59.81,2.26v172H442A19.46,19.46,0,0,0,461.41,349.51Z"/><path class="cls-4" d="M243.08,201.62a19.45,19.45,0,0,0-17,18.21l-7.45,129.68A19.46,19.46,0,0,0,238,370.08h42.17v-172C267.6,199,255.17,200.14,243.08,201.62Z"/><path class="cls-5" d="M405.64,224.23a588.51,588.51,0,0,0-65.64-4,588.51,588.51,0,0,0-65.64,4c-8.79,3.28-13.92,13.63-11.7,24.85,6.74,34,59.75,51.57,77.34,51.57s70.6-17.53,77.34-51.57C419.56,237.86,414.43,227.51,405.64,224.23Z"/><circle class="cls-6" cx="366.91" cy="250.89" r="12.07"/><circle class="cls-6" cx="313.09" cy="250.89" r="12.07"/><path class="cls-2" d="M514,475c0-.57-1.77-79.75-5.24-97.55-.35-1.8-1.18-6-2.64-7.32l-.43-.38c-1.84-1.62-3.58-3.14-17.49-3.14V347.78c18,0,23.75,2.41,29.92,7.82l.37.33c5.57,4.85,7.5,11.49,8.76,17.93,3.75,19.29,5.5,98.17,5.58,100.59Z"/><path class="cls-3" d="M509.54,508.45V480.59H537v27.86a27.38,27.38,0,1,0-27.42,0Z"/><path class="cls-3" d="M463.75,382a211.64,211.64,0,0,0,29.53-2.08,5.06,5.06,0,0,0,4.29-5.25l-2.44-36.51a5.07,5.07,0,0,0-4.25-4.77,177.48,177.48,0,0,0-27.81-2.13"/><path class="cls-2" d="M166.05,475c0-.57,1.77-79.75,5.24-97.55.35-1.8,1.18-6,2.64-7.32l.43-.38c1.84-1.62,3.58-3.14,17.49-3.14V347.78c-18,0-23.75,2.41-29.92,7.82l-.37.33c-5.57,4.85-7.5,11.49-8.76,17.93-3.75,19.29-5.5,98.17-5.58,100.59Z"/><path class="cls-3" d="M170.46,508.45V480.59H143v27.86a27.38,27.38,0,1,1,27.42,0Z"/><path class="cls-3" d="M216.25,382a211.64,211.64,0,0,1-29.53-2.08,5.06,5.06,0,0,1-4.29-5.25l2.44-36.51a5.07,5.07,0,0,1,4.25-4.77,177.48,177.48,0,0,1,27.81-2.13"/><path class="cls-7" d="M314.06,322.73q-8.28-.21-16.49-.53l-6.64-.29q-8.74-.41-17.4-1l-4.07-.24q-10.54-.7-21-1.63c-1.8-.16-3.6-.34-5.39-.51q-8-.74-15.94-1.59c-1.14-.13-2.29-.22-3.43-.35a22.45,22.45,0,0,0-25,22.23l-.37,176.26a22.29,22.29,0,0,0,18.9,23.13q10.92,1.62,21.93,3l4.37.53Q254.24,543,265,544l4,.34q10.42.9,21,1.56l2.07.14c7.41.43,14.89.74,22.41,1,.85,0,1.67.08,2.52.11l.7,0c7.39.2,14.81.34,22.32.34V323.08C331.28,323.08,322.65,322.94,314.06,322.73Z"/><path class="cls-4" d="M481.29,339h0a22.58,22.58,0,0,0-25.14-22.35c-1.14.13-2.29.22-3.42.34-5.28.57-10.56,1.1-15.87,1.59l-5.37.5q-10.44.92-21,1.63c-1.35.09-2.72.16-4.07.24q-8.64.56-17.33,1l-6.64.28c-5.43.22-10.9.4-16.38.53-8.64.22-17.32.36-26.1.36V547.43c7.56,0,15-.14,22.45-.34.24,0,.47,0,.71,0,.84,0,1.66-.08,2.5-.1,7.51-.24,15-.55,22.35-1l2.21-.14q10.48-.64,20.84-1.56c1.32-.11,2.64-.21,4-.34q10.78-1,21.45-2.25l4.41-.54c7.32-.9,14.61-1.86,21.88-2.94a22.29,22.29,0,0,0,18.9-23.13Z"/><circle class="cls-2" cx="340" cy="436.58" r="69.88"/><path class="cls-5" d="M366.84,410.9a36.77,36.77,0,0,1,6.06,8.17L363,416.79l-1,4.35,17.73,4.11,4.11-17.74-4.35-1L377,417.21a41.27,41.27,0,0,0-7-9.47h0a41.26,41.26,0,0,0-69.7,36.92h4.58a36.77,36.77,0,0,1,62-33.76"/><path class="cls-5" d="M311.64,466.1a41.26,41.26,0,0,0,70.44-29.18c0-.06,0-.12,0-.18l-4.52-1.14c0,.44.07.88.07,1.32a36.81,36.81,0,0,1-62.83,26h0a35.33,35.33,0,0,1-3.52-4.17h9.93V454.3H303v18.21h4.46V461.06a38.15,38.15,0,0,0,4.18,5"/><rect class="cls-8" width="680" height="785"/><g id="Logo"><path class="cls-5" d="M369.65,726.4a1.7,1.7,0,0,1,1.19,2.07,1.69,1.69,0,0,1-2.06,1.19,1.64,1.64,0,0,1-1-.8,1.67,1.67,0,0,1,.61-2.29A1.6,1.6,0,0,1,369.65,726.4Zm.07-.26a1.88,1.88,0,0,0-1.48.2,1.9,1.9,0,0,0-.91,1.18,1.88,1.88,0,0,0,.2,1.48,1.9,1.9,0,0,0,1.18.91,1.83,1.83,0,0,0,1.48-.19,2,2,0,0,0,.72-2.67A1.88,1.88,0,0,0,369.72,726.14Zm-.3,1.66a.94.94,0,0,1-.29.22l-.29.17-.39-.67.28-.17a1,1,0,0,1,.43-.15.34.34,0,0,1,.28.2A.35.35,0,0,1,369.42,727.8Zm-.36,1.54.33-.19-.42-.73.26-.15a.88.88,0,0,1,.39-.15q.24,0,.42.33l.09.14,0,.06,0,0h0l.31-.18h0a.45.45,0,0,1-.07-.09l-.08-.13-.08-.14a.52.52,0,0,0-.27-.23.51.51,0,0,0-.42,0,.88.88,0,0,0,.21-.24.45.45,0,0,0,0-.47.53.53,0,0,0-.55-.31,1.53,1.53,0,0,0-.55.23l-.65.37Z"/><path class="cls-5" d="M350.91,696.76c.38,1.3.91,2.56,1.34,3.92-3.62,1.5-7.75,3.46-12.28,5.86.29,1.33.59,2.63.9,4.05,7.69-3.82,12.43-3.94,15.89-2.87a11.19,11.19,0,0,1,6.62,5.91,12.29,12.29,0,0,1,.37,10.67,17.41,17.41,0,0,1-5.9,7.24c-3.26,2.21-8.27,4-9.58,4-1.34-1-2.68-2-4.14-3.1a.82.82,0,0,1-.4-1.1c.3-1,.58-2,.88-3,.13-.46.3-.91.79-.64,1.72.88,3.32,1.68,4.93,2.48,1.8.87,4,1.33,7.16-.76a6.26,6.26,0,0,0,2.38-7.47c-2.18-4.34-8.14-4.86-19.74.55-1.57-7.62-3.07-15-4.26-20.88,2.69-1.39,5.25-2.58,7.74-3.62,1.84-.77,3.67-1.29,5.37-2A25.88,25.88,0,0,0,329.3,743.8c.95-.54,1.49-1.14,1.32-1.59a7.74,7.74,0,0,0-1.07-1.72,117,117,0,0,1-8.46-13.66c-1.11.7-2.1,1.34-3,2-.47-.9-.9-1.76-1.33-2.67l3-2.06c-.39-.79-.76-1.56-1.12-2.33-2.11-4.84,1.07-10.37,4.43-13.74a22.39,22.39,0,0,1,3.35-2.74c.3-.19.62-.39.95-.58a4.78,4.78,0,0,1,2.45-.83c1.23.15,2.45.3,3.76.49.16.07.37.21.34.67-.14.72-.27,1.42-.4,2.16-.08.43-.52.59-.92.69l-2.68.17a10.44,10.44,0,0,0-4.62,1.23,2.66,2.66,0,0,0-.57,3.34c1,2,2,4,3.2,6.19,2.47-1.52,4.94-3,7.58-4.54l1,1.77c-.64.88-1.22,1.74-1.86,2.63l-5.15,3.05c2.85,5.13,5.85,10.15,8.77,14.69a7.44,7.44,0,0,0,1.38,1.74c.59.47,2.26.12,5.41-1.46l.93,1.52a109,109,0,0,1-14.3,6.5,25.89,25.89,0,0,0,19.3-47.92Z"/><polygon class="cls-5" points="331.61 744.68 331.61 744.68 331.61 744.68 331.61 744.68"/></g><path class="cls-5" d="M394.17,702.16l.63,1.09c1.08,1.87.44,3.83-1.71,5.07l-2.55,1.47,2.15,3.72-1.91,1.1-6.31-10.94,4.44-2.56C391.06,699.87,393.09,700.28,394.17,702.16Zm-1.93,1c-.47-.8-1.23-1-2.18-.41l-2.67,1.54,2.13,3.69,2.66-1.53c.94-.54,1.21-1.29.75-2.1Z"/><path class="cls-5" d="M402.17,697.59l4.53,7.85-1.24.71-.67-.43a3.73,3.73,0,0,1-1.87,2.19c-1.88,1.08-3.62.78-5-1.55l-1-1.67c-1.34-2.34-.73-4,1.15-5.07a3.69,3.69,0,0,1,2.83-.52l0-.8Zm1,6L402,701.52a1.71,1.71,0,0,0-2.45-.41,1.69,1.69,0,0,0-.66,2.61l.86,1.48a1.7,1.7,0,0,0,2.6.76A1.74,1.74,0,0,0,403.2,703.63Z"/><path class="cls-5" d="M408.37,693.85l.94,1.62a3.24,3.24,0,0,0-.8.31,1.9,1.9,0,0,0-.78,2.76l2.73,4.73-1.82,1.05-4.53-7.85,1.24-.72.76.5A4,4,0,0,1,408,694,2.09,2.09,0,0,1,408.37,693.85Z"/><path class="cls-5" d="M417.48,697l1,1.7-1.11.64c-1.86,1.07-3.35.66-4.51-1.34l-1.84-3.2-1.05.61-1-1.7,1.06-.61-1.3-2.24,1.84-1.06,1.3,2.24,2-1.13,1,1.7-2,1.13,1.65,2.85c.64,1.11,1.37,1.34,2.26.83Z"/><path class="cls-5" d="M421.37,692.82l-.93-1.61c-1.18-2.06-.69-4.05,1.53-5.33s4.22-.73,5.41,1.33l.93,1.61c1.18,2.06.69,4-1.54,5.34S422.55,694.88,421.37,692.82Zm5.06-3-.86-1.48a1.88,1.88,0,1,0-3.26,1.88l.86,1.48a1.88,1.88,0,1,0,3.26-1.88Z"/><path class="cls-5" d="M428.93,681.22l.41.7,2-1.17,1,1.7-2.05,1.17,3.56,6.15L432,690.84l-3.55-6.15-.84.48-1-1.7.83-.48-.45-.79c-1.13-2-.75-3.92,1.15-5l.95-.55,1,1.7-.75.42C428.42,679.32,428.28,680.08,428.93,681.22Z"/><path class="cls-5" d="M443.89,681.73l1,1.7-1.11.64c-1.86,1.07-3.36.66-4.5-1.34l-1.85-3.2-1.06.61-1-1.7,1.05-.61-1.29-2.24,1.83-1.06,1.3,2.24,2-1.13,1,1.7-2,1.13,1.64,2.85c.64,1.11,1.37,1.35,2.27.83Z"/><path class="cls-5" d="M450.4,674.17l2.63,4.56-1.84,1.06-2.63-4.56c-.7-1.22-1.68-1.42-2.58-.9a1.77,1.77,0,0,0-.75,2.51l2.76,4.79-1.83,1-6.86-11.9,1.82-1,2.58,4.47a3.83,3.83,0,0,1,1.73-1.84C447.2,671.33,449,671.7,450.4,674.17Z"/><path class="cls-5" d="M458.44,668.81l1,1.73-4.94,2.85.13.23c.73,1.26,1.64,1.49,2.69.88.79-.45,1.23-1.24.84-1.91l-.07-.12,1.84-1.06c1,1.7.26,3.48-1.73,4.62a3.66,3.66,0,0,1-5.45-1.41l-.86-1.5a3.62,3.62,0,0,1,1.49-5.35C455.39,666.61,457.45,667.09,458.44,668.81Zm-1.68,1.4-.17-.31a1.48,1.48,0,0,0-2.3-.62c-1.1.64-1.24,1.55-.61,2.71Z"/><path class="cls-5" d="M463.34,660.55l1.91,3.31,4.48-2.59,1,1.76-4.48,2.59,2.37,4.11-1.9,1.1-6.31-11,6.89-4,1,1.76Z"/><path class="cls-5" d="M479.93,658.05l.54,1c1.1,1.91.36,4-1.81,5.25s-4.35.85-5.46-1.06l-.5-.87,1.91-1.1.55,1c.5.85,1.39,1,2.5.33s1.48-1.49,1-2.34L478,659a1.32,1.32,0,0,0-2-.41l-3.77,2.18L468.9,655l6.58-3.8,1,1.76-4.68,2.7,1.34,2.32,1.94-1.12A3.31,3.31,0,0,1,479.93,658.05Z"/><path class="cls-5" d="M492.18,653l-4,2.3.59,2.79-1.86,1.08-3-12.83,2.7-1.56,9.58,9.06-1.89,1.08Zm-4.46.23,2.91-1.68-4.25-4Z"/><path class="cls-5" d="M499.17,641.67l4.53,7.85-1.21.69-.68-.45a3.44,3.44,0,0,1-1.71,2.12c-1.77,1-3.5.64-4.91-1.82l-2.64-4.58,1.84-1.06L497,649c.69,1.2,1.53,1.48,2.46,1a1.68,1.68,0,0,0,.61-2.41l-2.78-4.81Z"/><path class="cls-5" d="M508.8,644.31l1,1.7-1.11.64c-1.85,1.07-3.35.65-4.5-1.34l-1.84-3.2-1.06.61-1-1.7,1-.61-1.29-2.24,1.84-1.06,1.29,2.24,2-1.13,1,1.7-2,1.13,1.64,2.85c.64,1.11,1.37,1.34,2.27.83Z"/><path class="cls-5" d="M509,642.31l-.93-1.61c-1.19-2.06-.68-4.05,1.54-5.34s4.21-.72,5.4,1.34l.92,1.61c1.19,2.05.7,4.05-1.53,5.34S510.17,644.37,509,642.31Zm5.06-3-.85-1.48a1.89,1.89,0,1,0-3.27,1.88l.86,1.48a1.68,1.68,0,0,0,2.6.77A1.7,1.7,0,0,0,514.05,639.3Z"/><path class="cls-5" d="M527.63,629.64l2.64,4.56-1.85,1.06-2.68-4.65c-.66-1.14-1.51-1.39-2.27-1a1.6,1.6,0,0,0-.55,2.25l.16.26,2.67,4.63-1.84,1.07-2.68-4.65c-.67-1.15-1.52-1.39-2.28-1a1.66,1.66,0,0,0-.51,2.35l2.78,4.8-1.83,1.06-4.53-7.85,1.2-.69.67.45a3.26,3.26,0,0,1,1.53-2,2.89,2.89,0,0,1,2.93-.23,3.13,3.13,0,0,1,1.6-2.38C524.57,626.73,526.22,627.18,527.63,629.64Z"/><path class="cls-5" d="M534.25,621.44l4.53,7.85-1.24.72-.66-.44a3.72,3.72,0,0,1-1.88,2.19c-1.88,1.09-3.61.79-5-1.55l-1-1.67c-1.34-2.33-.72-4,1.16-5.07a3.74,3.74,0,0,1,2.83-.52l0-.8Zm1,6-1.21-2.1a1.91,1.91,0,0,0-3.11,2.2l.86,1.48a1.7,1.7,0,0,0,2.6.75A1.73,1.73,0,0,0,535.28,627.48Z"/><path class="cls-5" d="M543.89,624.08l1,1.7-1.12.64c-1.85,1.07-3.34.66-4.49-1.34l-1.85-3.2-1,.61-1-1.7,1-.61-1.29-2.24,1.83-1.06,1.29,2.25,2-1.14,1,1.7-2,1.14,1.64,2.84c.63,1.11,1.38,1.35,2.27.83Z"/><path class="cls-5" d="M539.91,614.22l1.89-1.09,1.13,2L541,616.18Zm1.75,2.95,1.83-1.06L548,624,546.19,625Z"/><path class="cls-5" d="M547.89,619.88l-.93-1.61c-1.18-2.06-.69-4,1.54-5.33s4.21-.72,5.4,1.33l.93,1.61c1.18,2.06.69,4.06-1.54,5.34S549.07,621.94,547.89,619.88Zm5.06-3-.86-1.48a1.68,1.68,0,0,0-2.6-.77,1.71,1.71,0,0,0-.66,2.65l.86,1.47a1.88,1.88,0,1,0,3.26-1.87Z"/><path class="cls-5" d="M562.53,609.52l2.64,4.56-1.85,1.06-2.64-4.57a1.75,1.75,0,0,0-2.58-.88,1.79,1.79,0,0,0-.76,2.49l2.78,4.81-1.82,1-4.53-7.85,1.19-.69.73.48a3.77,3.77,0,0,1,1.86-2.26C559.35,606.68,561.11,607.05,562.53,609.52Z"/><path class="cls-5" d="M572.81,597.44l-3.16,1.82,5.3,9.18-1.89,1.09-5.29-9.18-3.18,1.83-1-1.76,8.21-4.74Z"/><path class="cls-5" d="M575.49,604l-.92-1.61c-1.19-2.06-.69-4.06,1.54-5.34s4.21-.72,5.39,1.34l.93,1.61c1.19,2,.69,4-1.53,5.33S576.68,606,575.49,604Zm5.07-3-.85-1.48a1.89,1.89,0,1,0-3.27,1.88l.86,1.48a1.88,1.88,0,1,0,3.26-1.88Z"/><path class="cls-5" d="M583.81,599.18l-.93-1.61c-1.18-2.06-.69-4.06,1.54-5.34s4.22-.72,5.4,1.34l.93,1.6c1.18,2.06.69,4.06-1.53,5.34S585,601.23,583.81,599.18Zm5.07-3-.86-1.48a1.88,1.88,0,1,0-3.26,1.88l.85,1.48a1.89,1.89,0,1,0,3.27-1.88Z"/><path class="cls-5" d="M589.22,584.36l6.86,11.9-1.85,1.06-6.86-11.9Z"/><path class="cls-5" d="M596,592.18l-.93-1.61a3.58,3.58,0,0,1,1.48-5.31,3.54,3.54,0,0,1,5.19,1.28l.11.18-1.86,1.07-.13-.23a1.54,1.54,0,0,0-2.32-.6,1.69,1.69,0,0,0-.6,2.62l.85,1.48a1.68,1.68,0,0,0,2.56.79,1.56,1.56,0,0,0,.65-2.31l-.13-.23,1.85-1.07.11.18a3.54,3.54,0,0,1-1.5,5.13A3.58,3.58,0,0,1,596,592.18Z"/><path class="cls-5" d="M610.39,581.93,613,586.5l-1.84,1.06L608.54,583c-.7-1.22-1.68-1.42-2.57-.9a1.78,1.78,0,0,0-.76,2.51L608,589.4l-1.82,1.06-6.87-11.91,1.83-1,2.57,4.47a3.83,3.83,0,0,1,1.73-1.84C607.19,579.1,609,579.46,610.39,581.93Z"/><path class="cls-5" d="M617,573.73l4.53,7.85-1.24.71-.66-.44a3.72,3.72,0,0,1-1.88,2.19c-1.88,1.09-3.61.79-5-1.54l-1-1.67c-1.34-2.34-.73-4,1.16-5.07a3.65,3.65,0,0,1,2.83-.52l-.05-.8Zm1,6-1.21-2.1a1.72,1.72,0,0,0-2.45-.42,1.69,1.69,0,0,0-.65,2.62l.85,1.48a1.7,1.7,0,0,0,2.6.75A1.73,1.73,0,0,0,618.05,579.76Z"/><path class="cls-5" d="M617.24,569.64l1.88-1.08,1.14,2-1.89,1.08Zm1.74,3,1.84-1.07,4.53,7.86-1.84,1.06Z"/><path class="cls-5" d="M631.54,569.73l2.63,4.57-1.83,1.06-2.64-4.58a1.85,1.85,0,1,0-3.34,1.61l2.77,4.81-1.82,1.06-4.53-7.86,1.2-.68.72.48a3.75,3.75,0,0,1,1.86-2.26C628.37,566.9,630.12,567.26,631.54,569.73Z"/><path class="cls-5" d="M386.17,690.91l-3.27,1.89,1,3.19-3.4,2-5.78-18,4.52-2.62,12.7,14-3.47,2Zm-6.77-8,2.31,6.35,2-1.17Z"/><path class="cls-5" d="M390.45,686.58l-6.8-11.78,3.49-2L394,684.61c.47.81,1.3,1,2.41.42s1.33-1.49.86-2.31L390.4,670.9l3.49-2,6.8,11.78c1.55,2.67.63,5.7-2.48,7.49S392,689.26,390.45,686.58Z"/><path class="cls-5" d="M406.75,665.67l-3.31,1.91,7.41,12.84-3.49,2L400,669.6l-3.34,1.92-1.82-3.15,10.14-5.85Z"/><path class="cls-5" d="M412.54,673.83l-4.37-7.57c-1.55-2.68-.56-5.74,2.69-7.62s6.39-1.19,7.94,1.48l4.37,7.57c1.54,2.68.55,5.74-2.67,7.6S414.08,676.51,412.54,673.83Zm7.16-4.08-4.42-7.66c-.47-.81-1.32-1-2.58-.31s-1.54,1.61-1.07,2.42l4.42,7.66c.47.81,1.32,1,2.61.3S420.17,670.56,419.7,669.75Z"/><path class="cls-5" d="M440.32,663.4l-3,1.73-5.94-10.29,3.66,11.6-2.5,1.44-8.29-9,6,10.38-3,1.72-9.23-16,4.15-2.39,7.64,7.77-2.91-10.5,4.16-2.41Z"/><path class="cls-5" d="M447.25,655.65,444,657.53l1,3.19-3.4,2-5.79-18,4.53-2.62,12.7,14-3.47,2Zm-6.77-8L442.8,654l2-1.17Z"/><path class="cls-5" d="M455.36,637.6l-3.31,1.92,7.41,12.83-3.49,2-7.41-12.84-3.33,1.92-1.82-3.15,10.13-5.85Z"/><path class="cls-5" d="M454.62,633.83l3.49-2,9.23,16-3.49,2Z"/><path class="cls-5" d="M466.58,642.63l-4.37-7.57c-1.55-2.68-.56-5.74,2.69-7.61s6.39-1.2,7.94,1.47l4.36,7.57c1.55,2.68.56,5.75-2.66,7.6S468.12,645.31,466.58,642.63Zm7.16-4.08-4.42-7.65c-.47-.82-1.32-1-2.58-.32s-1.54,1.61-1.07,2.42l4.42,7.66c.47.81,1.32,1,2.61.3S474.21,639.36,473.74,638.55Z"/><path class="cls-5" d="M482.36,617.81l9.23,16-3.06,1.77-9.42-6.69,5.25,9.09-3,1.76-9.23-16,3-1.76,9.45,6.74-5.28-9.14Z"/><path class="cls-5" d="M495.37,626,491,618.43c-1.55-2.67-.56-5.74,2.64-7.59s6.37-1.18,7.92,1.5l1.15,2-3.53,2-1.18-2c-.47-.81-1.37-1-2.52-.35s-1.49,1.58-1,2.39l4.42,7.66c.47.81,1.39,1,2.56.33s1.44-1.56,1-2.37l-1.19-2,3.54-2,1.15,2c1.55,2.68.56,5.75-2.64,7.59S496.92,628.68,495.37,626Z"/><path class="cls-5" d="M507.46,619l-4.36-7.57c-1.55-2.67-.56-5.74,2.69-7.61s6.39-1.2,7.94,1.48l4.36,7.56c1.55,2.68.56,5.75-2.66,7.61S509,621.7,507.46,619Zm7.17-4.08-4.42-7.65c-.47-.81-1.32-1-2.58-.31s-1.54,1.6-1.07,2.41l4.42,7.66c.47.81,1.32,1,2.61.3S515.1,615.75,514.63,614.94Z"/><path class="cls-5" d="M523.25,594.2l9.23,16L529.42,612,520,605.27l5.25,9.1-3,1.75-9.23-16,3-1.75,9.45,6.73L520.19,596Z"/><path class="cls-5" d="M530.38,594.29l2.34,4.05,4.1-2.36,1.82,3.15-4.1,2.37,3.25,5.62-3.49,2-9.23-16,8.27-4.77,1.82,3.15Z"/><path class="cls-5" d="M534.71,587.59l3.49-2,9.23,16-3.49,2Z"/><path class="cls-5" d="M550.27,586.29l-.93-1.6c-.47-.81-1.52-.92-2.56-.32s-1.49,1.58-1,2.39l4.42,7.66c.47.81,1.55.91,2.56.32s1.49-1.58,1-2.39L553,591l-1.82,1-1.82-3.15,5.31-3.07,2.58,4.46c1.54,2.68.55,5.74-2.65,7.59s-6.37,1.19-7.91-1.49l-4.37-7.57c-1.55-2.68-.56-5.74,2.64-7.59s6.37-1.19,7.92,1.49l.9,1.56Z"/><path class="cls-5" d="M563.31,586.78l-4.37-7.57c-1.55-2.67-.56-5.74,2.64-7.59s6.37-1.18,7.92,1.5l1.16,2-3.54,2-1.18-2c-.47-.81-1.37-1-2.52-.35s-1.49,1.58-1,2.39l4.42,7.66c.47.81,1.39,1,2.56.32s1.45-1.55,1-2.36l-1.19-2,3.54-2,1.16,2c1.54,2.68.55,5.75-2.65,7.59S564.85,589.46,563.31,586.78Z"/><path class="cls-5" d="M575.4,579.8,571,572.23c-1.55-2.68-.56-5.74,2.69-7.61s6.39-1.2,7.94,1.48l4.37,7.56c1.54,2.68.55,5.75-2.67,7.61S576.94,582.48,575.4,579.8Zm7.16-4.08-4.42-7.65c-.47-.81-1.32-1-2.58-.31s-1.54,1.6-1.07,2.41l4.42,7.66c.47.81,1.32,1,2.61.3S583,576.53,582.56,575.72Z"/><path class="cls-5" d="M591.18,555l9.23,16-3.06,1.77-9.42-6.69,5.25,9.09-3,1.76-9.23-16,3-1.75,9.45,6.73-5.28-9.14Z"/><path class="cls-5" d="M603.7,547.76l5.85,17.93L605,568.32l-12.59-14.05,3.49-2L604.4,562l-4.14-12.22Z"/><path class="cls-5" d="M610.25,548.18l2,3.49,3.88-2.24,1.82,3.16-3.88,2.23,1.76,3,4.77-2.75,1.82,3.15L614.17,563l-9.23-16,8.26-4.77,1.82,3.15Z"/><path class="cls-5" d="M625.68,548.7l-1.67,1,3.33,5.76-3.49,2-9.23-16,5.32-3.07c2.79-1.61,5.8-1,7.29,1.62l.86,1.48a4.82,4.82,0,0,1,.35,4.3l6,5.56-3.65,2.11Zm-3.49-2.19,2-1.19a1.13,1.13,0,0,0,.45-1.67l-1-1.8a1.14,1.14,0,0,0-1.65-.46l-2.07,1.2Z"/><path class="cls-5" d="M637.49,532.45l-3.31,1.91,7.41,12.84-3.49,2-7.41-12.83-3.33,1.92-1.82-3.15,10.13-5.85Z"/><path class="cls-5" d="M642.07,529.81l2,3.49,3.87-2.24,1.82,3.16-3.87,2.23,1.76,3,4.77-2.75,1.82,3.15L646,544.66l-9.24-16L645,523.9l1.82,3.15Z"/><path class="cls-5" d="M657.5,530.33l-1.67,1,3.33,5.77-3.49,2-9.23-16,5.31-3.07c2.79-1.61,5.8-1,7.3,1.62l.86,1.48a4.88,4.88,0,0,1,.35,4.3l6,5.56-3.65,2.11ZM654,528.14l2-1.18a1.14,1.14,0,0,0,.45-1.67l-1-1.81a1.14,1.14,0,0,0-1.65-.46l-2.07,1.2Z"/></g></g></svg>